<?xml version="1.0" encoding="utf-8"?>
<!-- Generator: Adobe Illustrator 26.0.0, SVG Export Plug-In . SVG Version: 6.00 Build 0)  -->
<svg version="1.1" id="Layer_1" xmlns="http://www.w3.org/2000/svg" xmlns:xlink="http://www.w3.org/1999/xlink" x="0px" y="0px"
	 viewBox="0 0 646.24 207.22" style="enable-background:new 0 0 646.24 207.22;" xml:space="preserve">
<style type="text/css">
	.st0{fill:#30302F;}
	.st1{fill:#FFFFFF;}
	.st2{fill:#DFC193;}
	.st3{fill:#313130;}
</style>
<g>
	<g>
		<path class="st2" d="M158.58,80.88H58.21c-6.34,0-11.51,5.17-11.51,11.51c0,6.42,5.17,11.51,11.51,11.51
			c6.34,0,11.51-5.1,11.51-11.51c0-0.62-0.07-1.18-0.14-1.79h77.63c-0.07,0.61-0.14,1.17-0.14,1.79c0,6.42,5.18,11.51,11.51,11.51
			c6.34,0,11.43-5.1,11.43-11.51C170.01,86.05,164.92,80.88,158.58,80.88z"/>
		<polygon class="st2" points="76.28,133.94 76.28,167.16 76.28,170.23 86,170.23 86,138.96 86,133.94 86,106.79 103.51,106.79 
			103.51,127.88 103.51,167.16 103.51,178.42 113.16,178.42 113.16,167.16 113.16,127.88 113.16,125.89 113.23,125.94 
			113.23,106.79 130.71,106.79 130.71,128.81 130.71,138.71 130.71,175.47 140.44,175.47 140.44,167.16 140.44,128.81 140.44,97.07 
			76.28,97.07 		"/>
		<polygon class="st2" points="141.58,70.06 108.36,59.38 75.14,70.06 75.14,74.61 141.58,74.61 		"/>
	</g>
	<g>
		<path class="st3" d="M221.28,137.33H207.8l28.86-70.7h12.68l29.16,70.7h-13.78L243.05,83.5L221.28,137.33z"/>
		<path class="st3" d="M317.84,126.54h35.15v10.79h-47.33v-70.7h45.84v10.78h-33.65v18.38h31.56v10.29h-31.56V126.54z"/>
		<path class="st3" d="M398.33,137.33h-12.58v-70.7h42.44v10.98h-29.86V137.33z"/>
		<path class="st3" d="M464.34,137.33h-13.68l30.06-70.7h12.18l29.86,70.7h-13.98l-6.49-16.08h-31.66L464.34,137.33z M474.52,110.87
			h23.97L486.6,80.51L474.52,110.87z"/>
		<path class="st3" d="M555.81,137.33h-13.48l28.86-70.7h12.68l29.16,70.7h-13.78L577.57,83.5L555.81,137.33z"/>
	</g>
	<path class="st3" d="M53.95,161.24c-30.83-30.83-30.83-80.8,0-111.63s80.81-30.83,111.63,0c9.92,9.92,16.65,21.83,20.18,34.44
		c-3.17-15.08-10.6-29.44-22.3-41.15c-32.09-32.09-84.12-32.09-116.21,0s-32.09,84.12,0,116.21c11.71,11.71,26.07,19.14,41.15,22.3
		C75.78,177.89,63.88,171.17,53.95,161.24z"/>
	<path class="st2" d="M159.44,59.62c26.37,26.37,26.37,69.11,0,95.48s-69.11,26.37-95.48,0c-8.49-8.49-14.24-18.67-17.26-29.46
		c2.71,12.9,9.06,25.18,19.08,35.2c27.45,27.45,71.95,27.45,99.4,0s27.45-71.95,0-99.4c-10.01-10.01-22.3-16.37-35.2-19.08
		C140.77,45.39,150.95,51.14,159.44,59.62z"/>
</g>
</svg>
