<svg width="16" height="17" viewBox="0 0 16 17" fill="none" xmlns="http://www.w3.org/2000/svg">
<path fill-rule="evenodd" clip-rule="evenodd" d="M1.87526 2.16661C1.64628 3.83789 1.4206 8.35158 4.78082 11.8985C8.14104 15.4454 12.4172 15.2072 14.0005 14.9655V11.5456L10.6736 10.9603L10.1713 12.0207C10.0443 12.2889 9.78457 12.4583 9.50049 12.4583V11.6666C9.50049 12.4583 9.50012 12.4583 9.49974 12.4583L9.49895 12.4583L9.49727 12.4583L9.49349 12.4582L9.48424 12.4581C9.47732 12.458 9.46893 12.4578 9.4591 12.4575C9.43944 12.4568 9.41401 12.4556 9.38322 12.4534C9.32165 12.4491 9.23841 12.4409 9.13661 12.4256C8.93314 12.3949 8.65441 12.3353 8.32582 12.2197C7.66604 11.9876 6.81178 11.5314 5.97016 10.6431C5.12854 9.75469 4.6964 8.85297 4.47648 8.15654C4.36695 7.8097 4.31053 7.51548 4.28147 7.3007C4.26692 7.19325 4.25919 7.10539 4.25508 7.04039C4.25303 7.00789 4.25188 6.98105 4.25125 6.9603C4.25093 6.94992 4.25074 6.94106 4.25063 6.93376L4.25052 6.92399L4.2505 6.92L4.25049 6.91823L4.25049 6.9174C4.25049 6.917 4.25049 6.91661 5.00049 6.91661H4.25049C4.25049 6.65191 4.37582 6.40473 4.58446 6.2579L6.32812 5.03088L5.24272 2.16661H1.87526ZM5.80573 7.30143L7.16017 6.34829C7.75037 5.93297 7.98428 5.13803 7.72084 4.44285L6.63543 1.57857C6.40764 0.977447 5.85607 0.583275 5.24272 0.583275H1.83607C1.15469 0.583275 0.513305 1.08294 0.401447 1.86332C0.146964 3.63871 -0.199421 8.88073 3.72016 13.0181C7.63974 17.1554 12.6059 16.7898 14.2878 16.5212C15.0271 16.4031 15.5005 15.7261 15.5005 15.0068V11.5456C15.5005 10.7716 14.9704 10.111 14.2471 9.98379L10.9202 9.3985C10.2706 9.28423 9.62644 9.6305 9.33194 10.2522L9.07207 10.8008C8.99039 10.7797 8.89921 10.7525 8.80016 10.7176C8.33494 10.554 7.6892 10.2184 7.03082 9.52348C6.37244 8.82853 6.05458 8.14691 5.8995 7.65584C5.8576 7.52315 5.82743 7.40384 5.80573 7.30143Z" fill="#E5C08C"/>
</svg>
