<svg width="15" height="16" viewBox="0 0 15 16" fill="none" xmlns="http://www.w3.org/2000/svg">
<path fill-rule="evenodd" clip-rule="evenodd" d="M0.513471 0.656504C0.920267 0.233436 1.57981 0.233436 1.98661 0.656504L7.50004 6.39047L13.0135 0.656504C13.4203 0.233436 14.0798 0.233436 14.4866 0.656504C14.8934 1.07957 14.8934 1.7655 14.4866 2.18857L8.97318 7.92254L14.4866 13.6565C14.8934 14.0796 14.8934 14.7655 14.4866 15.1886C14.0798 15.6116 13.4203 15.6116 13.0135 15.1886L7.50004 9.4546L1.98661 15.1886C1.57981 15.6116 0.920267 15.6116 0.513471 15.1886C0.106675 14.7655 0.106675 14.0796 0.513471 13.6565L6.0269 7.92254L0.513471 2.18857C0.106675 1.7655 0.106675 1.07957 0.513471 0.656504Z" fill="#141414"/>
</svg>
