<svg width="14" height="19" viewBox="0 0 14 19" fill="none" xmlns="http://www.w3.org/2000/svg">
<path fill-rule="evenodd" clip-rule="evenodd" d="M7.00028 2.49994C4.23886 2.49994 2.00028 4.85044 2.00028 7.74994C2.00028 8.64933 2.30357 9.65464 2.81821 10.6968C3.32909 11.7313 4.01995 12.7455 4.72689 13.6468C5.4318 14.5456 6.13904 15.3149 6.67094 15.8601C6.79053 15.9827 6.901 16.0937 7.00028 16.192C7.09957 16.0937 7.21004 15.9827 7.32963 15.8601C7.86153 15.3149 8.56876 14.5456 9.27368 13.6468C9.98062 12.7455 10.6715 11.7313 11.1824 10.6968C11.697 9.65464 12.0003 8.64933 12.0003 7.74994C12.0003 4.85044 9.76171 2.49994 7.00028 2.49994ZM7.00028 17.3749C6.45796 18.0393 6.45781 18.0392 6.45764 18.039L6.45587 18.0374L6.45167 18.0336L6.43706 18.0203C6.4246 18.009 6.40677 17.9926 6.38391 17.9715C6.33822 17.9292 6.27242 17.8677 6.18939 17.7886C6.02339 17.6303 5.78815 17.4009 5.50671 17.1124C4.94487 16.5365 4.19376 15.7199 3.44034 14.7593C2.68895 13.8013 1.92148 12.6826 1.33861 11.5023C0.759498 10.3296 0.333618 9.03805 0.333618 7.74994C0.333618 3.88395 3.31839 0.749939 7.00028 0.749939C10.6822 0.749939 13.667 3.88395 13.667 7.74994C13.667 9.03805 13.2411 10.3296 12.662 11.5023C12.0791 12.6826 11.3116 13.8013 10.5602 14.7593C9.8068 15.7199 9.0557 16.5365 8.49386 17.1124C8.21242 17.4009 7.97718 17.6303 7.81118 17.7886C7.72815 17.8677 7.66235 17.9292 7.61665 17.9715C7.5938 17.9926 7.57597 18.009 7.56351 18.0203L7.5489 18.0336L7.5447 18.0374L7.54339 18.0386C7.54322 18.0387 7.54261 18.0393 7.00028 17.3749ZM7.00028 17.3749L6.45764 18.039C6.76971 18.3199 7.23054 18.3202 7.54261 18.0393L7.00028 17.3749ZM7.00028 5.99994C6.07981 5.99994 5.33362 6.78344 5.33362 7.74994C5.33362 8.71644 6.07981 9.49994 7.00028 9.49994C7.92076 9.49994 8.66695 8.71644 8.66695 7.74994C8.66695 6.78344 7.92076 5.99994 7.00028 5.99994ZM3.66695 7.74994C3.66695 5.81694 5.15934 4.24994 7.00028 4.24994C8.84123 4.24994 10.3336 5.81694 10.3336 7.74994C10.3336 9.68294 8.84123 11.2499 7.00028 11.2499C5.15934 11.2499 3.66695 9.68294 3.66695 7.74994Z" fill="#E5C08C"/>
</svg>
