<svg width="20" height="21" viewBox="0 0 20 21" fill="none" xmlns="http://www.w3.org/2000/svg">
<path fill-rule="evenodd" clip-rule="evenodd" d="M2.39627 2.03921C2.1101 4.12792 1.82805 9.76895 6.02753 14.2017C10.227 18.6345 15.5711 18.3368 17.5499 18.0347V13.7607L13.3921 13.0292L12.7644 14.3544C12.6056 14.6896 12.281 14.9013 11.926 14.9013V13.9119C11.926 14.9013 11.9255 14.9013 11.9251 14.9013L11.9241 14.9013L11.922 14.9013L11.9172 14.9013L11.9057 14.9012C11.897 14.901 11.8865 14.9008 11.8743 14.9003C11.8497 14.8995 11.8179 14.898 11.7794 14.8953C11.7025 14.8899 11.5985 14.8797 11.4712 14.8605C11.2169 14.8221 10.8686 14.7477 10.4579 14.6032C9.63337 14.3131 8.56575 13.743 7.51392 12.6328C6.46209 11.5225 5.92203 10.3956 5.64717 9.5252C5.51029 9.09173 5.43978 8.72402 5.40345 8.45561C5.38528 8.32131 5.37561 8.21151 5.37048 8.13029C5.36791 8.08966 5.36648 8.05612 5.36569 8.03019C5.36529 8.01722 5.36506 8.00614 5.36492 7.99702L5.36478 7.98481L5.36475 7.97982L5.36475 7.97761L5.36474 7.97657C5.36474 7.97607 5.36474 7.97558 6.30206 7.97558H5.36474C5.36474 7.64477 5.52137 7.33585 5.78213 7.15236L7.96129 5.61887L6.60479 2.03921H2.39627ZM7.30842 8.45651L9.00116 7.26533C9.73876 6.74627 10.0311 5.75278 9.70185 4.88397L8.34535 1.30431C8.06066 0.553046 7.37134 0.0604248 6.60479 0.0604248H2.3473C1.49573 0.0604248 0.694153 0.684893 0.554357 1.66018C0.236314 3.87899 -0.196585 10.4303 4.70196 15.601C9.6005 20.7716 15.807 20.3147 17.909 19.979C18.833 19.8314 19.4246 18.9853 19.4246 18.0864V13.7607C19.4246 12.7934 18.762 11.9679 17.8581 11.8088L13.7003 11.0774C12.8885 10.9345 12.0834 11.3673 11.7153 12.1443L11.3906 12.8299C11.2885 12.8035 11.1745 12.7695 11.0507 12.726C10.4693 12.5214 9.66231 12.1021 8.83949 11.2336C8.01668 10.365 7.61942 9.51317 7.42562 8.89945C7.37325 8.73361 7.33555 8.5845 7.30842 8.45651Z" fill="#E5C08C"/>
</svg>
