<svg width="19" height="19" viewBox="0 0 19 19" fill="none" xmlns="http://www.w3.org/2000/svg">
<path fill-rule="evenodd" clip-rule="evenodd" d="M9.50024 2.49994C5.63425 2.49994 2.50024 5.63395 2.50024 9.49994C2.50024 13.3659 5.63425 16.4999 9.50024 16.4999C13.3662 16.4999 16.5002 13.3659 16.5002 9.49994C16.5002 5.63395 13.3662 2.49994 9.50024 2.49994ZM0.750244 9.49994C0.750244 4.66745 4.66775 0.749939 9.50024 0.749939C14.3327 0.749939 18.2502 4.66745 18.2502 9.49994C18.2502 14.3324 14.3327 18.2499 9.50024 18.2499C4.66775 18.2499 0.750244 14.3324 0.750244 9.49994ZM9.50024 4.24994C9.98349 4.24994 10.3752 4.64169 10.3752 5.12494V9.1375L12.744 11.5062C13.0857 11.8479 13.0857 12.4019 12.744 12.7437C12.4023 13.0854 11.8482 13.0854 11.5065 12.7437L8.88153 10.1187C8.71743 9.95456 8.62524 9.732 8.62524 9.49994V5.12494C8.62524 4.64169 9.01699 4.24994 9.50024 4.24994Z" fill="#E5C08C"/>
</svg>
